<svg width="534" height="745" viewBox="0 0 534 745" fill="none" xmlns="http://www.w3.org/2000/svg">
<path fill-rule="evenodd" clip-rule="evenodd" d="M131.931 0V524.85L292.647 406.807L359.011 455.771V0H131.931ZM131.931 547.998V607.624H359.011V478.908L292.647 429.944L131.931 547.998Z" fill="#C40E16"/>
<path fill-rule="evenodd" clip-rule="evenodd" d="M247.712 701.674H265.135V689.077H217.983V701.674H235.405V744.704H247.728V701.674H247.712ZM405.471 720.341C405.494 723.397 404.307 726.338 402.17 728.522C400.034 730.706 397.121 731.955 394.067 731.997H387.732C384.678 731.955 381.766 730.706 379.63 728.522C377.494 726.338 376.309 723.397 376.333 720.341V713.472C376.309 710.416 377.494 707.474 379.63 705.289C381.765 703.105 384.678 701.854 387.732 701.811H394.067C397.121 701.854 400.034 703.105 402.171 705.289C404.307 707.474 405.494 710.415 405.471 713.472V720.341ZM417.741 720.246V713.557C417.785 707.14 415.291 700.966 410.803 696.382C406.316 691.798 400.199 689.176 393.787 689.088H388.048C381.638 689.177 375.522 691.8 371.036 696.383C366.55 700.967 364.056 707.14 364.1 713.557V720.246C364.055 726.663 366.548 732.838 371.034 737.423C375.52 742.008 381.637 744.631 388.048 744.72H393.803C400.216 744.632 406.333 742.01 410.821 737.424C415.309 732.839 417.802 726.664 417.757 720.246M107.033 720.341C107.054 723.398 105.866 726.339 103.729 728.522C101.591 730.706 98.6777 731.955 95.6236 731.997H89.3198C86.2652 731.956 83.3507 730.708 81.213 728.524C79.0753 726.34 77.888 723.398 77.9106 720.341V713.472C77.888 710.415 79.0751 707.472 81.2127 705.287C83.3503 703.103 86.2647 701.853 89.3198 701.811H95.6236C98.6791 701.853 101.594 703.102 103.733 705.287C105.871 707.472 107.059 710.414 107.038 713.472L107.033 720.341ZM119.287 720.246V713.557C119.33 707.14 116.837 700.967 112.351 696.383C107.865 691.8 101.749 689.177 95.3385 689.088H89.5996C83.187 689.174 77.0688 691.796 72.5803 696.38C68.0917 700.964 65.5971 707.139 65.6409 713.557V720.246C65.5957 726.665 68.0897 732.841 72.5784 737.426C77.0671 742.012 83.1861 744.634 89.5996 744.72H95.3385C101.75 744.631 107.866 742.008 112.353 737.423C116.839 732.838 119.332 726.663 119.287 720.246ZM49.8603 744.72L29.7451 716.838L49.8603 689.088H34.5812L19.0065 710.603H12.3014V689.088H0V744.72H12.3014V723.199H19.0592L34.5865 744.72H49.8603ZM514.394 686.652L514.346 682.806C514.346 682.806 514.916 682.806 516.015 682.806H516.902C518.718 682.806 519.805 682.927 519.826 684.713C519.848 686.499 519.182 686.631 517.54 686.631H516.089H514.394M510.529 679.551V695.714H514.367V689.616H516.437C519.879 689.616 519.489 690.451 519.826 692.364C519.889 693.493 520.022 694.617 520.222 695.73H524.261C523.613 694.316 523.279 692.778 523.285 691.223C523.325 690.592 523.191 689.962 522.896 689.402C522.602 688.843 522.159 688.376 521.616 688.052C521.977 687.83 522.313 687.569 522.619 687.276C523.068 686.821 523.398 686.264 523.582 685.653C523.766 685.041 523.798 684.394 523.675 683.767C523.592 682.81 523.212 681.902 522.587 681.172C521.962 680.443 521.124 679.927 520.191 679.699C519.542 679.606 518.887 679.565 518.232 679.577C517.498 679.577 516.69 679.577 515.798 679.614H514.758C512.857 679.614 510.534 679.567 510.534 679.567M516.87 704.363C513.552 704.43 510.29 703.507 507.499 701.711C504.707 699.915 502.514 697.328 501.198 694.28C499.881 691.231 499.502 687.859 500.109 684.594C500.715 681.329 502.279 678.319 504.602 675.947C506.925 673.576 509.9 671.95 513.15 671.278C516.4 670.605 519.776 670.917 522.848 672.172C525.92 673.428 528.548 675.571 530.399 678.327C532.249 681.084 533.237 684.33 533.237 687.651C533.277 692.039 531.577 696.263 528.508 699.398C525.44 702.532 521.254 704.314 516.87 704.363ZM516.87 674.246C514.205 674.191 511.583 674.933 509.34 676.375C507.098 677.817 505.335 679.895 504.277 682.344C503.219 684.793 502.914 687.502 503.4 690.125C503.886 692.748 505.142 695.167 507.008 697.073C508.874 698.979 511.264 700.286 513.875 700.827C516.485 701.368 519.197 701.118 521.666 700.11C524.134 699.102 526.247 697.381 527.734 695.167C529.221 692.953 530.016 690.345 530.016 687.677C530.054 684.149 528.691 680.75 526.226 678.228C523.76 675.705 520.395 674.265 516.87 674.225V674.246ZM329.656 709.874V709.7C329.63 711.807 328.783 713.821 327.295 715.312C325.807 716.804 323.795 717.655 321.689 717.683H307.223V701.721H321.689C323.795 701.749 325.806 702.598 327.294 704.089C328.783 705.579 329.63 707.593 329.656 709.7V709.525V709.874ZM342.026 710.688V708.706C342.063 703.511 340.045 698.512 336.411 694.801C332.778 691.089 327.826 688.967 322.635 688.898H294.875V744.53H307.202V730.501H322.635C327.826 730.432 332.78 728.309 336.413 724.597C340.047 720.884 342.064 715.884 342.026 710.688ZM180.598 709.874V709.7C180.571 711.807 179.723 713.82 178.235 715.311C176.747 716.802 174.737 717.653 172.631 717.683H158.139V701.721H172.61C174.715 701.75 176.726 702.6 178.214 704.09C179.702 705.58 180.55 707.593 180.577 709.7V709.525V709.874H180.598ZM192.968 710.688V708.706C193.006 703.51 190.988 698.511 187.355 694.799C183.721 691.088 178.768 688.966 173.576 688.898H145.811V744.53H158.134V730.501H173.566C178.758 730.432 183.711 728.309 187.345 724.597C190.978 720.884 192.996 715.884 192.958 710.688M489.59 707.951C488.436 702.601 485.501 697.802 481.265 694.341C477.029 690.879 471.744 688.96 466.276 688.898H460.537C454.126 688.987 448.011 691.609 443.524 696.193C439.038 700.777 436.545 706.95 436.589 713.366V720.056C436.544 726.473 439.036 732.647 443.523 737.232C448.009 741.817 454.125 744.441 460.537 744.53H466.281C471.745 744.469 477.027 742.554 481.262 739.099C485.497 735.644 488.435 730.852 489.596 725.508H476.64C475.711 727.394 474.279 728.984 472.501 730.103C470.724 731.223 468.671 731.827 466.571 731.849H460.236C457.181 731.81 454.267 730.562 452.129 728.377C449.992 726.193 448.807 723.25 448.832 720.193V713.298C448.808 710.241 449.994 707.299 452.131 705.115C454.268 702.931 457.182 701.682 460.236 701.642H466.571C468.672 701.665 470.725 702.27 472.503 703.389C474.28 704.508 475.714 706.098 476.645 707.982H489.596L489.59 707.951Z" fill="white"/>
</svg>
