<svg width="136" height="137" viewBox="0 0 136 137" fill="none" xmlns="http://www.w3.org/2000/svg">
<path d="M17.9105 60.23C21.9481 36.1845 42.8052 17.8523 68 17.8523C93.1947 17.8523 114.052 36.1845 118.089 60.23H135.214C131.044 26.7921 102.582 0.900665 68 0.900665C33.4357 0.900665 4.96347 26.7921 0.783417 60.23H17.9105ZM118.089 77.1791C114.052 101.214 93.1947 119.557 68 119.557C42.8052 119.557 21.9481 101.214 17.9105 77.1791H0.785963C4.96348 110.617 33.4357 136.508 68 136.508C102.582 136.508 131.044 110.617 135.216 77.1791H118.089Z" fill="#FFC857"/>
<path d="M68 34.8039C49.2787 34.8039 34.0993 49.9833 34.0993 68.7045C34.0993 87.4258 49.2787 102.605 68 102.605C86.7289 102.605 101.901 87.4258 101.901 68.7045C101.901 49.9833 86.7289 34.8039 68 34.8039ZM68 85.6562C63.5041 85.6562 59.1924 83.8702 56.0134 80.6911C52.8343 77.5121 51.0484 73.2004 51.0484 68.7045C51.0484 64.2087 52.8343 59.897 56.0134 56.7179C59.1924 53.5389 63.5041 51.7529 68 51.7529C72.4958 51.7529 76.8075 53.5389 79.9866 56.7179C83.1656 59.897 84.9516 64.2087 84.9516 68.7045C84.9516 73.2004 83.1656 77.5121 79.9866 80.6911C76.8075 83.8702 72.4958 85.6562 68 85.6562Z" fill="#FFC857"/>
</svg>
