<svg xmlns="http://www.w3.org/2000/svg" fill="none" viewBox="0 0 512 512"><rect width="512" height="512" rx="50" style="fill:#f7df1e"/><path d="M349.977 400.868c9.875 16.124 22.723 27.976 45.446 27.976 19.089 0 31.283-9.54 31.283-22.723 0-15.797-12.529-21.392-33.54-30.582l-11.517-4.942c-33.244-14.163-55.329-31.905-55.329-69.414 0-34.551 26.326-60.854 67.469-60.854 29.291 0 50.348 10.194 65.523 36.886l-35.874 23.034c-7.899-14.163-16.42-19.742-29.649-19.742-13.494 0-22.046 8.56-22.046 19.742 0 13.821 8.56 19.416 28.326 27.976l11.517 4.934c39.143 16.785 61.243 33.897 61.243 72.371 0 41.477-32.583 64.2-76.34 64.2-42.784 0-70.426-20.388-83.95-47.111l37.438-21.751Zm-162.742 3.993c7.237 12.84 13.821 23.695 29.649 23.695 15.136 0 24.684-5.922 24.684-28.948V242.959h46.069V400.23c0 47.703-27.968 69.414-68.792 69.414-36.886 0-58.247-19.088-69.11-42.08l37.5-22.703Z" style="fill-rule:nonzero;fill:#2e302c"/></svg>