<svg width="32" height="32" viewBox="0 0 32 32" fill="none" xmlns="http://www.w3.org/2000/svg">
<g clip-path="url(#clip0_26265_18524)">
<path d="M11.4212 25.5881V14.167H9.58966H5.71059C2.55711 14.167 0 16.7241 0 19.8775C0 23.0311 2.55711 25.5881 5.71059 25.5881H11.4212ZM1.83152 19.8775C1.83152 17.7359 3.56889 15.9985 5.71059 15.9985H9.58966V23.7566H5.71059C3.56704 23.7566 1.83152 22.0193 1.83152 19.8775Z" fill="url(#paint0_linear_26265_18524)"/>
<path d="M26.2874 6.41113H20.5768V17.8323H22.4084H26.2874C29.4408 17.8323 31.9981 15.2752 31.9981 12.1217C31.9981 8.96825 29.4408 6.41113 26.2874 6.41113ZM26.2874 16.0008H22.4084V8.24266H26.2874C28.4292 8.24266 30.1665 9.98002 30.1665 12.1217C30.1665 14.2634 28.4292 16.0008 26.2874 16.0008Z" fill="url(#paint1_linear_26265_18524)"/>
<path d="M25.5878 26.2887C25.5878 23.1354 23.0308 20.5781 19.8772 20.5781H14.1667V22.4097V26.2887C14.1667 29.4423 16.7238 31.9994 19.8772 31.9994C23.0308 31.9994 25.5878 29.4423 25.5878 26.2887ZM15.9982 26.2887V22.4097H19.8772C22.019 22.4097 23.7562 24.1471 23.7562 26.2887C23.7562 28.4305 22.019 30.1678 19.8772 30.1678C17.7356 30.1678 15.9982 28.4305 15.9982 26.2887Z" fill="url(#paint2_linear_26265_18524)"/>
<path d="M12.1192 11.4212H17.8298V9.58966V5.71059C17.8298 2.55711 15.2727 0 12.1192 0C8.96571 0 6.4086 2.55711 6.4086 5.71059C6.41045 8.86407 8.96571 11.4212 12.1192 11.4212ZM12.1192 1.83152C14.2609 1.83152 15.9983 3.56889 15.9983 5.71059V9.58966H12.1192C9.97749 9.58966 8.24013 7.8523 8.24013 5.71059C8.24198 3.56889 9.97749 1.83152 12.1192 1.83152Z" fill="url(#paint3_linear_26265_18524)"/>
</g>
<defs>
<linearGradient id="paint0_linear_26265_18524" x1="5.7106" y1="14.167" x2="5.7106" y2="25.5881" gradientUnits="userSpaceOnUse">
<stop stop-color="#0BAA4F"/>
<stop offset="1" stop-color="#22BB8C"/>
</linearGradient>
<linearGradient id="paint1_linear_26265_18524" x1="26.2875" y1="6.41114" x2="26.2875" y2="17.8323" gradientUnits="userSpaceOnUse">
<stop stop-color="#0BAA4F"/>
<stop offset="1" stop-color="#22BB8C"/>
</linearGradient>
<linearGradient id="paint2_linear_26265_18524" x1="19.8773" y1="20.5781" x2="19.8773" y2="31.9994" gradientUnits="userSpaceOnUse">
<stop stop-color="#0BAA4F"/>
<stop offset="1" stop-color="#22BB8C"/>
</linearGradient>
<linearGradient id="paint3_linear_26265_18524" x1="12.1192" y1="9.14628e-06" x2="12.1192" y2="11.4212" gradientUnits="userSpaceOnUse">
<stop stop-color="#0BAA4F"/>
<stop offset="1" stop-color="#22BB8C"/>
</linearGradient>
<clipPath id="clip0_26265_18524">
<rect width="32" height="32" fill="white"/>
</clipPath>
</defs>
</svg>
