<svg xmlns="http://www.w3.org/2000/svg" xml:space="preserve" style="enable-background:new 0 0 800 800" viewBox="0 0 800 800"><path d="M400 0c-55.3 0-107 10.4-155.3 31.3-47.8 19.9-91.3 48.9-128 85.4-36.5 36.7-65.5 80.2-85.4 128C10.4 293 0 344.7 0 400s10.4 107 31.3 155.3c19.9 47.8 48.9 91.3 85.4 128 36.7 36.5 80.2 65.4 128 85.3 48.3 21 100 31.3 155.3 31.3s107-10.3 155.3-31.3c47.8-19.9 91.3-48.9 128-85.3 36.5-36.7 65.4-80.2 85.3-128 21-48.3 31.3-100 31.3-155.3s-10.3-107-31.3-155.3c-19.9-47.8-48.9-91.3-85.3-128-36.7-36.5-80.2-65.5-128-85.4C507 10.4 455.3 0 400 0M296 50c30.4 17.5 58.4 39 83 64 24.5 24.4 45.7 51.9 63.3 81.7 17.7 30 31 62 41 96.7 9.3 34.3 14.3 70.3 14.3 107.7s-5 73.3-14.3 107.7c-9.3 33.9-23 66.4-41 96.7-17.6 29.8-38.9 57.2-63.3 81.7-25 25-52.7 46-83 64-30-17.6-57.6-39.2-82-64-24.7-24.4-46.2-51.8-64-81.7-17.5-30.3-30.8-62.8-39.7-96.7-10-35-15.1-71.3-15-107.7 0-37.3 4.7-73.3 15-107.7 8.8-33.9 22.2-66.4 39.7-96.7 17.8-29.8 39.3-57.3 64-81.7 25-25 52.7-46 82-64m-.7 257.7c-25.7 0-47.3 9-65.3 27-17.6 17.1-27.4 40.8-27 65.3 0 25.7 9 47.3 27 65.3s39.7 27 65.3 27 47.3-9 65.3-27 27-39.7 27-65.3c0-25.7-9-47.3-27-65.3-17-17.7-40.7-27.4-65.3-27z" style="fill:#fff"/></svg>