<svg xmlns="http://www.w3.org/2000/svg" xml:space="preserve" style="enable-background:new 0 0 800 800" viewBox="0 0 800 800"><path d="M522.8 18.7c-27.1-8.6-55-14.5-83.3-17.4C434.1.7 406.2.1 388.3.1h-4.9c-4.7 0-8.2.1-9.6.2-1.7.2-7.2.7-12.1 1.1C248.1 11.7 141.7 73 74.2 167.2 36.9 218.8 12.7 278.8 3.6 341.9.4 363.9 0 370.4 0 400.2c0 29.8.4 36.3 3.6 58.3 21.7 150.2 128.7 276.4 273.6 323.2 26 8.4 53.3 14.1 84.4 17.5 3.9.4 11.8.7 21.2.9h34.4c9.4-.2 17.3-.4 21.2-.9 53.7-6 99.2-19.3 144.1-42.2 6.9-3.5 8.2-4.5 7.3-5.2-.7-.5-30-39.8-65.2-87.3l-64-86.4-80.1-118.6c-26.7-39.7-53.6-79.2-80.7-118.5-.3-.1-.6 52.6-.8 117-.2 112.7-.3 117.2-1.7 119.9-1.4 3.1-3.8 5.6-6.9 7.1-2.5 1.3-4.7 1.5-16.5 1.5h-13.5l-3.6-2.3c-2.2-1.4-4-3.4-5.2-5.7l-1.7-3.5.1-157 .2-156.9 2.4-3.1c1.6-1.9 3.6-3.5 5.8-4.8 3.2-1.6 4.4-1.7 18-1.7 15.9 0 18.6.6 22.7 5.1 1.2 1.3 44.6 66.7 96.5 145.4l157.8 239.1 63.3 95.9 3.2-2.1c30.5-20.3 58.1-44.5 82.2-72.1 50.4-57.7 83.1-128.7 94.2-204.5 3.2-22 3.6-28.5 3.6-58.3 0-29.8-.4-36.3-3.6-58.3-21.6-150-128.6-276.3-273.5-323zm23.3 376.2-.2 140.6-24.8-38-24.9-38V357.3c0-66.1.3-103.2.8-105 1.1-4.2 3.9-7.8 7.7-9.9 3.2-1.7 4.4-1.8 16.7-1.8 11.6 0 13.6.2 16.2 1.6 3.8 1.9 6.6 5.2 7.9 9.2.6 2 .7 45.5.6 143.5z" style="fill:#fff"/></svg>