<svg xmlns="http://www.w3.org/2000/svg" xml:space="preserve" style="enable-background:new 0 0 411 473" viewBox="0 0 411 473"><path d="M392.9 364.8c4.3 54.6 4.3 80.3 4.3 108.2H270.8c0-6.1.1-11.7.2-17.3.3-17.6.7-35.9-2.1-72.9-3.8-54.2-27.1-66.2-70-66.2H0v-98.5h204.9c54.2 0 81.2-16.5 81.2-60.1 0-38.4-27.1-61.6-81.2-61.6H0V0h227.5C350.1 0 411 57.9 411 150.4c0 69.2-42.9 114.3-100.8 121.8 48.9 9.8 77.5 37.7 82.7 92.6z" style="fill-rule:evenodd;clip-rule:evenodd;fill:#fff"/><path d="M0 473v-73.4h133.7c22.3 0 27.2 16.6 27.2 26.4v47H0z" style="fill:#fff"/></svg>