<svg width="142" height="141" viewBox="0 0 142 141" fill="none" xmlns="http://www.w3.org/2000/svg">
<path d="M76.5976 5.657C73.4734 2.5328 68.4081 2.53281 65.2839 5.657L6.33215 64.6088C3.20795 67.733 3.20796 72.7983 6.33215 75.9225L65.2839 134.874C68.4081 137.998 73.4734 137.998 76.5976 134.874L135.549 75.9225C138.674 72.7983 138.674 67.733 135.549 64.6088L76.5976 5.657Z" fill="#8572FF"/>
<path d="M74.9462 17.812C72.603 15.4689 68.8041 15.4689 66.4609 17.812L18.1933 66.0796C15.8502 68.4228 15.8502 72.2218 18.1933 74.5649L66.6473 123.019C68.9905 125.362 72.7894 125.362 75.1326 123.019L123.4 74.7513C125.743 72.4082 125.743 68.6092 123.4 66.266L74.9462 17.812Z" fill="white"/>
<path d="M35.3161 62.8768L28.4097 69.7832L71.7198 113.093L78.6263 106.187L35.3161 62.8768Z" fill="#F54ED4"/>
<path d="M64.2732 63.6033L57.3667 70.5098L85.8363 98.9794L92.7428 92.0729L64.2732 63.6033Z" fill="#F54ED4"/>
<path d="M85.1151 70.6266L71.3022 84.4395L78.2682 91.4055L92.0811 77.5926L85.1151 70.6266Z" fill="#F54ED4"/>
<path d="M106.195 63.4803L99.2886 70.3867L106.255 77.3527L113.161 70.4463L106.195 63.4803Z" fill="#F54ED4"/>
<path d="M78.3863 49.4902L57.3667 70.5098L64.3327 77.4757L85.3523 56.4561L78.3863 49.4902Z" fill="#F54ED4"/>
<path d="M70.4488 27.744L28.4097 69.7832L35.6785 77.052L77.7177 35.0129L70.4488 27.744Z" fill="#F54ED4"/>
</svg>
